<?xml version="1.0" encoding="UTF-8" standalone="no"?>
<!DOCTYPE svg PUBLIC "-//W3C//DTD SVG 1.1//EN"
 "http://www.w3.org/Graphics/SVG/1.1/DTD/svg11.dtd">
<!-- Generated by graphviz version 15.0.0 (20260523.1842)
 -->
<!-- Title: genealogy Pages: 1 -->
<svg width="1054pt" height="535pt"
 viewBox="0.00 0.00 1054.00 535.00" xmlns="http://www.w3.org/2000/svg" xmlns:xlink="http://www.w3.org/1999/xlink">
<g id="graph0" class="graph" transform="scale(1 1) rotate(0) translate(4 530.76)">
<title>genealogy</title>
<polygon fill="white" stroke="none" points="-4,4 -4,-530.76 1049.79,-530.76 1049.79,4 -4,4"/>
<text xml:space="preserve" text-anchor="middle" x="522.9" y="-512.31" font-family="Helvetica,sans-Serif" font-size="11.00">Genealogy of audio performance control — siblings descended from MIDI, not parent→child</text>
<text xml:space="preserve" text-anchor="middle" x="522.9" y="-498.06" font-family="Helvetica,sans-Serif" font-size="11.00">(★ convergence)</text>
<g id="clust1" class="cluster">
<title>cluster_sc</title>
<path fill="none" stroke="#3b6ea5" d="M873,-158.63C873,-158.63 1019,-158.63 1019,-158.63 1025,-158.63 1031,-164.63 1031,-170.63 1031,-170.63 1031,-404.63 1031,-404.63 1031,-410.63 1025,-416.63 1019,-416.63 1019,-416.63 873,-416.63 873,-416.63 867,-416.63 861,-410.63 861,-404.63 861,-404.63 861,-170.63 861,-170.63 861,-164.63 867,-158.63 873,-158.63"/>
<text xml:space="preserve" text-anchor="middle" x="946" y="-402.18" font-family="Helvetica,sans-Serif" font-size="11.00" fill="#3b6ea5">Theatre / show control</text>
</g>
<g id="clust2" class="cluster">
<title>cluster_tr</title>
<path fill="none" stroke="#c1733b" d="M705,-158.63C705,-158.63 841,-158.63 841,-158.63 847,-158.63 853,-164.63 853,-170.63 853,-170.63 853,-218.63 853,-218.63 853,-224.63 847,-230.63 841,-230.63 841,-230.63 705,-230.63 705,-230.63 699,-230.63 693,-224.63 693,-218.63 693,-218.63 693,-170.63 693,-170.63 693,-164.63 699,-158.63 705,-158.63"/>
<text xml:space="preserve" text-anchor="middle" x="773" y="-216.18" font-family="Helvetica,sans-Serif" font-size="11.00" fill="#c1733b">Tracker / demoscene</text>
</g>
<g id="clust3" class="cluster">
<title>cluster_ms</title>
<path fill="none" stroke="#9b5fb0" d="M20,-158.63C20,-158.63 170,-158.63 170,-158.63 176,-158.63 182,-164.63 182,-170.63 182,-170.63 182,-404.63 182,-404.63 182,-410.63 176,-416.63 170,-416.63 170,-416.63 20,-416.63 20,-416.63 14,-416.63 8,-410.63 8,-404.63 8,-404.63 8,-170.63 8,-170.63 8,-164.63 14,-158.63 20,-158.63"/>
<text xml:space="preserve" text-anchor="middle" x="95" y="-402.18" font-family="Helvetica,sans-Serif" font-size="11.00" fill="#9b5fb0">Music sequencer / adaptive</text>
</g>
<g id="clust4" class="cluster">
<title>cluster_mw</title>
<path fill="none" stroke="#2f8f6b" d="M202,-69C202,-69 467,-69 467,-69 473,-69 479,-75 479,-81 479,-81 479,-218.63 479,-218.63 479,-224.63 473,-230.63 467,-230.63 467,-230.63 202,-230.63 202,-230.63 196,-230.63 190,-224.63 190,-218.63 190,-218.63 190,-81 190,-81 190,-75 196,-69 202,-69"/>
<text xml:space="preserve" text-anchor="middle" x="334.5" y="-216.18" font-family="Helvetica,sans-Serif" font-size="11.00" fill="#2f8f6b">Engine / middleware</text>
</g>
<!-- midi -->
<g id="node1" class="node">
<title>midi</title>
<ellipse fill="#ffe9a8" stroke="#888888" cx="809" cy="-467.19" rx="60.63" ry="21.57"/>
<text xml:space="preserve" text-anchor="middle" x="809" y="-468.94" font-family="Helvetica,sans-Serif" font-size="10.00">MIDI 1.0 (1983)</text>
<text xml:space="preserve" text-anchor="middle" x="809" y="-457.69" font-family="Helvetica,sans-Serif" font-size="10.00">shared ancestor</text>
</g>
<!-- rsd -->
<g id="node2" class="node">
<title>rsd</title>
<path fill="#dce8f5" stroke="#888888" d="M1011.38,-388.63C1011.38,-388.63 880.62,-388.63 880.62,-388.63 874.62,-388.63 868.62,-382.63 868.62,-376.63 868.62,-376.63 868.62,-364.63 868.62,-364.63 868.62,-358.63 874.62,-352.63 880.62,-352.63 880.62,-352.63 1011.38,-352.63 1011.38,-352.63 1017.38,-352.63 1023.38,-358.63 1023.38,-364.63 1023.38,-364.63 1023.38,-376.63 1023.38,-376.63 1023.38,-382.63 1017.38,-388.63 1011.38,-388.63"/>
<text xml:space="preserve" text-anchor="middle" x="946" y="-372.38" font-family="Helvetica,sans-Serif" font-size="10.00">Richmond Sound Design (1972)</text>
<text xml:space="preserve" text-anchor="middle" x="946" y="-361.13" font-family="Helvetica,sans-Serif" font-size="10.00">Stage Manager (1991)</text>
</g>
<!-- midi&#45;&gt;rsd -->
<g id="edge1" class="edge">
<title>midi&#45;&gt;rsd</title>
<path fill="none" stroke="#666666" d="M836.07,-447.51C858.49,-432.03 890.41,-410 914.09,-393.66"/>
<polygon fill="#666666" stroke="#666666" points="915.22,-395.85 919.59,-389.86 912.44,-391.82 915.22,-395.85"/>
</g>
<!-- msc -->
<g id="node3" class="node">
<title>msc</title>
<path fill="#dce8f5" stroke="#888888" d="M1008.88,-303.63C1008.88,-303.63 881.12,-303.63 881.12,-303.63 875.12,-303.63 869.12,-297.63 869.12,-291.63 869.12,-291.63 869.12,-279.63 869.12,-279.63 869.12,-273.63 875.12,-267.63 881.12,-267.63 881.12,-267.63 1008.88,-267.63 1008.88,-267.63 1014.88,-267.63 1020.88,-273.63 1020.88,-279.63 1020.88,-279.63 1020.88,-291.63 1020.88,-291.63 1020.88,-297.63 1014.88,-303.63 1008.88,-303.63"/>
<text xml:space="preserve" text-anchor="middle" x="945" y="-281.75" font-family="Helvetica,sans-Serif" font-size="10.00">MIDI Show Control v1.0 (1991)</text>
</g>
<!-- midi&#45;&gt;msc -->
<g id="edge2" class="edge">
<title>midi&#45;&gt;msc</title>
<path fill="none" stroke="#666666" d="M867.88,-461.44C927.42,-455.26 1013.52,-442.12 1034,-416.63 1051.82,-394.46 1046.79,-378.03 1034,-352.63 1024.54,-333.83 1006.92,-319.05 989.83,-308.28"/>
<polygon fill="#666666" stroke="#666666" points="991.13,-306.2 983.87,-304.7 988.6,-310.4 991.13,-306.2"/>
</g>
<!-- brb -->
<g id="node6" class="node">
<title>brb</title>
<path fill="#ecdcf2" stroke="#888888" d="M161.88,-388.63C161.88,-388.63 28.13,-388.63 28.13,-388.63 22.13,-388.63 16.12,-382.63 16.12,-376.63 16.12,-376.63 16.12,-364.63 16.12,-364.63 16.12,-358.63 22.12,-352.63 28.12,-352.63 28.12,-352.63 161.88,-352.63 161.88,-352.63 167.88,-352.63 173.88,-358.63 173.88,-364.63 173.88,-364.63 173.88,-376.63 173.88,-376.63 173.88,-382.63 167.88,-388.63 161.88,-388.63"/>
<text xml:space="preserve" text-anchor="middle" x="95" y="-372.38" font-family="Helvetica,sans-Serif" font-size="10.00">Blue Ribbon SoundWorks (1988)</text>
<text xml:space="preserve" text-anchor="middle" x="95" y="-361.13" font-family="Helvetica,sans-Serif" font-size="10.00">Bars&amp;Pipes / SuperJAM!</text>
</g>
<!-- midi&#45;&gt;brb -->
<g id="edge5" class="edge">
<title>midi&#45;&gt;brb</title>
<path fill="none" stroke="#666666" d="M752.68,-458.73C628.65,-442.31 331.22,-402.91 182.6,-383.23"/>
<polygon fill="#666666" stroke="#666666" points="183.1,-380.82 175.84,-382.33 182.46,-385.68 183.1,-380.82"/>
</g>
<!-- ixmf -->
<g id="node12" class="node">
<title>ixmf</title>
<ellipse fill="#fff3cf" stroke="#888888" cx="583" cy="-184.63" rx="96.17" ry="22.63"/>
<text xml:space="preserve" text-anchor="middle" x="583" y="-187.13" font-family="Helvetica,sans-Serif" font-size="10.00">IASIG / iXMF (1994→2005)</text>
<text xml:space="preserve" text-anchor="middle" x="583" y="-174.38" font-family="Helvetica,sans-Serif" font-size="10.00">games standard</text>
</g>
<!-- midi&#45;&gt;ixmf -->
<g id="edge8" class="edge">
<title>midi&#45;&gt;ixmf</title>
<path fill="none" stroke="#666666" d="M792.75,-446.02C753.07,-396.75 651.17,-270.25 605.6,-213.69"/>
<polygon fill="#666666" stroke="#666666" points="607.58,-212.24 601.28,-208.33 603.77,-215.32 607.58,-212.24"/>
</g>
<!-- rsd&#45;&gt;msc -->
<g id="edge3" class="edge">
<title>rsd&#45;&gt;msc</title>
<path fill="none" stroke="#666666" d="M945.79,-352.43C945.65,-340.82 945.47,-325.3 945.31,-312.24"/>
<polygon fill="#666666" stroke="#666666" points="947.76,-312.57 945.23,-305.6 942.86,-312.63 947.76,-312.57"/>
</g>
<!-- qlab -->
<g id="node4" class="node">
<title>qlab</title>
<path fill="#dce8f5" stroke="#888888" d="M981.5,-202.63C981.5,-202.63 890.5,-202.63 890.5,-202.63 884.5,-202.63 878.5,-196.63 878.5,-190.63 878.5,-190.63 878.5,-178.63 878.5,-178.63 878.5,-172.63 884.5,-166.63 890.5,-166.63 890.5,-166.63 981.5,-166.63 981.5,-166.63 987.5,-166.63 993.5,-172.63 993.5,-178.63 993.5,-178.63 993.5,-190.63 993.5,-190.63 993.5,-196.63 987.5,-202.63 981.5,-202.63"/>
<text xml:space="preserve" text-anchor="middle" x="936" y="-186.38" font-family="Helvetica,sans-Serif" font-size="10.00">QLab (2006)</text>
<text xml:space="preserve" text-anchor="middle" x="936" y="-175.13" font-family="Helvetica,sans-Serif" font-size="10.00">SFX · SCS · MultiPlay</text>
</g>
<!-- msc&#45;&gt;qlab -->
<g id="edge4" class="edge">
<title>msc&#45;&gt;qlab</title>
<path fill="none" stroke="#666666" d="M943.43,-267.38C942.02,-251.86 939.93,-228.85 938.32,-211.19"/>
<polygon fill="#666666" stroke="#666666" points="940.79,-211.26 937.72,-204.51 935.91,-211.71 940.79,-211.26"/>
</g>
<!-- msc&#45;&gt;ixmf -->
<g id="edge19" class="edge">
<title>msc&#45;&gt;ixmf</title>
<path fill="none" stroke="#9a7400" stroke-dasharray="5,2" d="M868.64,-272.67C816.97,-263.59 747.56,-249.44 688,-230.63 669.14,-224.67 649.03,-216.52 631.52,-208.79"/>
<polygon fill="#9a7400" stroke="#9a7400" points="632.95,-206.75 625.56,-206.13 630.95,-211.23 632.95,-206.75"/>
<text xml:space="preserve" text-anchor="middle" x="785.33" y="-240.03" font-family="Helvetica,sans-Serif" font-size="8.00">parallel MMA standards</text>
</g>
<!-- swift -->
<g id="node13" class="node">
<title>swift</title>
<polygon fill="#ffd24d" stroke="#888888" points="724.62,-36 529.38,-36 529.38,0 730.62,0 730.62,-30 724.62,-36"/>
<polyline fill="none" stroke="#888888" points="724.62,-36 724.62,-30"/>
<polyline fill="none" stroke="#888888" points="730.62,-30 724.62,-30"/>
<text xml:space="preserve" text-anchor="middle" x="630" y="-21.62" font-family="Helvetica,sans-Serif" font-size="10.00">★ Swift (2020): FMOD adapted for theatre</text>
<text xml:space="preserve" text-anchor="middle" x="630" y="-6.62" font-family="Helvetica,sans-Serif" font-size="10.00">event ≈ cue · scatterer ≈ QLab group cue</text>
</g>
<!-- qlab&#45;&gt;swift -->
<g id="edge17" class="edge">
<title>qlab&#45;&gt;swift</title>
<path fill="none" stroke="#9a7400" d="M903.54,-166.17C846.93,-135.71 730.37,-73 669.29,-40.14"/>
<polygon fill="#9a7400" stroke="#9a7400" points="670.78,-38.16 663.46,-37 668.46,-42.47 670.78,-38.16"/>
</g>
<!-- trk -->
<g id="node5" class="node">
<title>trk</title>
<path fill="#f4e2d2" stroke="#888888" d="M832.75,-202.63C832.75,-202.63 713.25,-202.63 713.25,-202.63 707.25,-202.63 701.25,-196.63 701.25,-190.63 701.25,-190.63 701.25,-178.63 701.25,-178.63 701.25,-172.63 707.25,-166.63 713.25,-166.63 713.25,-166.63 832.75,-166.63 832.75,-166.63 838.75,-166.63 844.75,-172.63 844.75,-178.63 844.75,-178.63 844.75,-190.63 844.75,-190.63 844.75,-196.63 838.75,-202.63 832.75,-202.63"/>
<text xml:space="preserve" text-anchor="middle" x="773" y="-186.38" font-family="Helvetica,sans-Serif" font-size="10.00">Ultimate Soundtracker (1987)</text>
<text xml:space="preserve" text-anchor="middle" x="773" y="-175.13" font-family="Helvetica,sans-Serif" font-size="10.00">&#39;playlist editor&#39;</text>
</g>
<!-- fmod -->
<g id="node10" class="node">
<title>fmod</title>
<path fill="#d6ece2" stroke="#888888" d="M459.38,-113C459.38,-113 346.62,-113 346.62,-113 340.62,-113 334.62,-107 334.62,-101 334.62,-101 334.62,-89 334.62,-89 334.62,-83 340.62,-77 346.62,-77 346.62,-77 459.38,-77 459.38,-77 465.38,-77 471.38,-83 471.38,-89 471.38,-89 471.38,-101 471.38,-101 471.38,-107 465.38,-113 459.38,-113"/>
<text xml:space="preserve" text-anchor="middle" x="403" y="-91.88" font-family="Helvetica,sans-Serif" font-size="10.00">FMOD (1995→Studio 2012)</text>
</g>
<!-- trk&#45;&gt;fmod -->
<g id="edge9" class="edge">
<title>trk&#45;&gt;fmod</title>
<path fill="none" stroke="#666666" d="M717.36,-166.22C708.25,-163.56 698.89,-160.93 690,-158.63 619.28,-140.29 537.83,-122.86 479.81,-111.07"/>
<polygon fill="#666666" stroke="#666666" points="480.61,-108.73 473.26,-109.75 479.64,-113.54 480.61,-108.73"/>
<text xml:space="preserve" text-anchor="middle" x="649.19" y="-134.4" font-family="Helvetica,sans-Serif" font-size="8.00">module playback</text>
</g>
<!-- imuse -->
<g id="node7" class="node">
<title>imuse</title>
<path fill="#ecdcf2" stroke="#888888" d="M161.75,-303.63C161.75,-303.63 108.25,-303.63 108.25,-303.63 102.25,-303.63 96.25,-297.63 96.25,-291.63 96.25,-291.63 96.25,-279.63 96.25,-279.63 96.25,-273.63 102.25,-267.63 108.25,-267.63 108.25,-267.63 161.75,-267.63 161.75,-267.63 167.75,-267.63 173.75,-273.63 173.75,-279.63 173.75,-279.63 173.75,-291.63 173.75,-291.63 173.75,-297.63 167.75,-303.63 161.75,-303.63"/>
<text xml:space="preserve" text-anchor="middle" x="135" y="-287.38" font-family="Helvetica,sans-Serif" font-size="10.00">iMUSE (1991)</text>
<text xml:space="preserve" text-anchor="middle" x="135" y="-276.13" font-family="Helvetica,sans-Serif" font-size="10.00">US 5,315,057</text>
</g>
<!-- brb&#45;&gt;imuse -->
<g id="edge7" class="edge">
<title>brb&#45;&gt;imuse</title>
<path fill="none" stroke="#666666" stroke-dasharray="5,2" d="M103.29,-352.43C108.99,-340.6 116.65,-324.71 123.01,-311.5"/>
<polygon fill="#666666" stroke="#666666" points="125.1,-312.82 125.93,-305.45 120.68,-310.69 125.1,-312.82"/>
<text xml:space="preserve" text-anchor="middle" x="141.7" y="-325.03" font-family="Helvetica,sans-Serif" font-size="8.00">auto&#45;compose</text>
</g>
<!-- dmus -->
<g id="node8" class="node">
<title>dmus</title>
<path fill="#ecdcf2" stroke="#888888" d="M161.75,-202.63C161.75,-202.63 48.25,-202.63 48.25,-202.63 42.25,-202.63 36.25,-196.63 36.25,-190.63 36.25,-190.63 36.25,-178.63 36.25,-178.63 36.25,-172.63 42.25,-166.63 48.25,-166.63 48.25,-166.63 161.75,-166.63 161.75,-166.63 167.75,-166.63 173.75,-172.63 173.75,-178.63 173.75,-178.63 173.75,-190.63 173.75,-190.63 173.75,-196.63 167.75,-202.63 161.75,-202.63"/>
<text xml:space="preserve" text-anchor="middle" x="105" y="-180.75" font-family="Helvetica,sans-Serif" font-size="10.00">DirectMusic / DirectX Audio</text>
</g>
<!-- brb&#45;&gt;dmus -->
<g id="edge6" class="edge">
<title>brb&#45;&gt;dmus</title>
<path fill="none" stroke="#666666" d="M91.65,-352.34C89.26,-339.07 86.25,-320.27 85,-303.63 83.8,-287.67 83.09,-283.51 85,-267.63 87.32,-248.3 92.62,-226.95 97.18,-210.88"/>
<polygon fill="#666666" stroke="#666666" points="99.45,-211.86 99.05,-204.45 94.74,-210.49 99.45,-211.86"/>
</g>
<!-- imuse&#45;&gt;dmus -->
<g id="edge10" class="edge">
<title>imuse&#45;&gt;dmus</title>
<path fill="none" stroke="#666666" stroke-dasharray="1,5" d="M129.77,-267.38C125.03,-251.72 117.97,-228.43 112.6,-210.71"/>
<polygon fill="#666666" stroke="#666666" points="115.08,-210.44 110.71,-204.45 110.39,-211.86 115.08,-210.44"/>
</g>
<!-- imuse&#45;&gt;fmod -->
<g id="edge16" class="edge">
<title>imuse&#45;&gt;fmod</title>
<path fill="none" stroke="#666666" stroke-dasharray="1,5" d="M174.22,-283.31C217.93,-279.91 288.56,-268.44 335,-230.63 369.71,-202.37 388.38,-151.83 396.96,-121.36"/>
<polygon fill="#666666" stroke="#666666" points="399.27,-122.19 398.73,-114.79 394.54,-120.92 399.27,-122.19"/>
</g>
<!-- wwise -->
<g id="node11" class="node">
<title>wwise</title>
<path fill="#d6ece2" stroke="#888888" d="M300.12,-113C300.12,-113 209.88,-113 209.88,-113 203.88,-113 197.88,-107 197.88,-101 197.88,-101 197.88,-89 197.88,-89 197.88,-83 203.88,-77 209.88,-77 209.88,-77 300.12,-77 300.12,-77 306.12,-77 312.12,-83 312.12,-89 312.12,-89 312.12,-101 312.12,-101 312.12,-107 306.12,-113 300.12,-113"/>
<text xml:space="preserve" text-anchor="middle" x="255" y="-97.5" font-family="Helvetica,sans-Serif" font-size="10.00">Wwise / Audiokinetic</text>
<text xml:space="preserve" text-anchor="middle" x="255" y="-86.25" font-family="Helvetica,sans-Serif" font-size="10.00">Montréal (2000→2006)</text>
</g>
<!-- imuse&#45;&gt;wwise -->
<g id="edge14" class="edge">
<title>imuse&#45;&gt;wwise</title>
<path fill="none" stroke="#666666" stroke-dasharray="1,5" d="M95.78,-276.51C70.83,-269.09 40.41,-255.36 25,-230.63 8.08,-203.47 5.57,-184.05 25,-158.63 44.92,-132.56 128.38,-114.76 189.04,-104.99"/>
<polygon fill="#666666" stroke="#666666" points="189.41,-107.41 195.94,-103.9 188.65,-102.57 189.41,-107.41"/>
</g>
<!-- imuse&#45;&gt;ixmf -->
<g id="edge11" class="edge">
<title>imuse&#45;&gt;ixmf</title>
<path fill="none" stroke="#666666" d="M174.15,-282.96C239.68,-279.19 375.03,-267.29 483,-230.63 500.66,-224.63 519.46,-216.63 535.93,-209.04"/>
<polygon fill="#666666" stroke="#666666" points="536.64,-211.41 541.95,-206.23 534.57,-206.97 536.64,-211.41"/>
<text xml:space="preserve" text-anchor="middle" x="482.45" y="-240.03" font-family="Helvetica,sans-Serif" font-size="8.00">Land + Sanger</text>
</g>
<!-- dmus&#45;&gt;wwise -->
<g id="edge13" class="edge">
<title>dmus&#45;&gt;wwise</title>
<path fill="none" stroke="#666666" stroke-dasharray="1,5" d="M134.64,-166.32C158.49,-152.38 192.16,-132.71 217.82,-117.72"/>
<polygon fill="#666666" stroke="#666666" points="219.05,-119.84 223.86,-114.19 216.58,-115.61 219.05,-119.84"/>
</g>
<!-- miles -->
<g id="node9" class="node">
<title>miles</title>
<path fill="#d6ece2" stroke="#888888" d="M311.88,-202.63C311.88,-202.63 250.12,-202.63 250.12,-202.63 244.12,-202.63 238.12,-196.63 238.12,-190.63 238.12,-190.63 238.12,-178.63 238.12,-178.63 238.12,-172.63 244.12,-166.63 250.12,-166.63 250.12,-166.63 311.88,-166.63 311.88,-166.63 317.88,-166.63 323.88,-172.63 323.88,-178.63 323.88,-178.63 323.88,-190.63 323.88,-190.63 323.88,-196.63 317.88,-202.63 311.88,-202.63"/>
<text xml:space="preserve" text-anchor="middle" x="281" y="-186.38" font-family="Helvetica,sans-Serif" font-size="10.00">Miles AIL (1991)</text>
<text xml:space="preserve" text-anchor="middle" x="281" y="-175.13" font-family="Helvetica,sans-Serif" font-size="10.00">first middleware</text>
</g>
<!-- miles&#45;&gt;fmod -->
<g id="edge12" class="edge">
<title>miles&#45;&gt;fmod</title>
<path fill="none" stroke="#666666" stroke-dasharray="1,5" d="M284.64,-166.59C287.76,-155.68 293.31,-141.96 302.75,-133 309.74,-126.36 318.02,-120.9 326.78,-116.4"/>
<polygon fill="#666666" stroke="#666666" points="327.61,-118.72 332.87,-113.5 325.5,-114.3 327.61,-118.72"/>
<text xml:space="preserve" text-anchor="middle" x="339.88" y="-134.4" font-family="Helvetica,sans-Serif" font-size="8.00">middleware category</text>
</g>
<!-- miles&#45;&gt;wwise -->
<g id="edge15" class="edge">
<title>miles&#45;&gt;wwise</title>
<path fill="none" stroke="#666666" stroke-dasharray="1,5" d="M275.86,-166.32C272.05,-153.47 266.8,-135.77 262.52,-121.33"/>
<polygon fill="#666666" stroke="#666666" points="264.9,-120.74 260.56,-114.73 260.2,-122.14 264.9,-120.74"/>
</g>
<!-- fmod&#45;&gt;swift -->
<g id="edge18" class="edge">
<title>fmod&#45;&gt;swift</title>
<path fill="none" stroke="#9a7400" d="M455.93,-76.51C489.92,-65.28 534.14,-50.67 569.51,-38.99"/>
<polygon fill="#9a7400" stroke="#9a7400" points="570.06,-41.38 575.94,-36.86 568.52,-36.73 570.06,-41.38"/>
</g>
</g>
</svg>
