<svg xmlns="http://www.w3.org/2000/svg" xmlns:xlink="http://www.w3.org/1999/xlink" version="1.1" class="marks" width="1589" height="567" viewBox="0 0 1589 567"><rect width="1589" height="567" fill="white"/><g fill="none" stroke-miterlimit="10" transform="translate(143,25)"><g class="mark-group role-frame root" role="graphics-object" aria-roledescription="group mark container"><g transform="translate(0,0)"><path class="background" aria-hidden="true" d="M0,0h1440v520h-1440Z"/><g><g class="mark-group role-axis" aria-hidden="true"><g transform="translate(0.5,520.5)"><path class="background" aria-hidden="true" d="M0,0h0v0h0Z" pointer-events="none"/><g><g class="mark-rule role-axis-grid" pointer-events="none"><line transform="translate(99,0)" x2="0" y2="-520" stroke="#ddd" stroke-width="1" opacity="1"/><line transform="translate(223,0)" x2="0" y2="-520" stroke="#ddd" stroke-width="1" opacity="1"/><line transform="translate(348,0)" x2="0" y2="-520" stroke="#ddd" stroke-width="1" opacity="1"/><line transform="translate(472,0)" x2="0" y2="-520" stroke="#ddd" stroke-width="1" opacity="1"/><line transform="translate(596,0)" x2="0" y2="-520" stroke="#ddd" stroke-width="1" opacity="1"/><line transform="translate(720,0)" x2="0" y2="-520" stroke="#ddd" stroke-width="1" opacity="1"/><line transform="translate(844,0)" x2="0" y2="-520" stroke="#ddd" stroke-width="1" opacity="1"/><line transform="translate(968,0)" x2="0" y2="-520" stroke="#ddd" stroke-width="1" opacity="1"/><line transform="translate(1092,0)" x2="0" y2="-520" stroke="#ddd" stroke-width="1" opacity="1"/><line transform="translate(1217,0)" x2="0" y2="-520" stroke="#ddd" stroke-width="1" opacity="1"/><line transform="translate(1341,0)" x2="0" y2="-520" stroke="#ddd" stroke-width="1" opacity="1"/></g></g><path class="foreground" aria-hidden="true" d="" pointer-events="none" display="none"/></g></g><g class="mark-group role-axis" role="graphics-symbol" aria-roledescription="axis" aria-label="X-axis for a linear scale with values from 1966 to 2024"><g transform="translate(0.5,520.5)"><path class="background" aria-hidden="true" d="M0,0h0v0h0Z" pointer-events="none"/><g><g class="mark-rule role-axis-tick" pointer-events="none"><line transform="translate(99,0)" x2="0" y2="5" stroke="#888" stroke-width="1" opacity="1"/><line transform="translate(223,0)" x2="0" y2="5" stroke="#888" stroke-width="1" opacity="1"/><line transform="translate(348,0)" x2="0" y2="5" stroke="#888" stroke-width="1" opacity="1"/><line transform="translate(472,0)" x2="0" y2="5" stroke="#888" stroke-width="1" opacity="1"/><line transform="translate(596,0)" x2="0" y2="5" stroke="#888" stroke-width="1" opacity="1"/><line transform="translate(720,0)" x2="0" y2="5" stroke="#888" stroke-width="1" opacity="1"/><line transform="translate(844,0)" x2="0" y2="5" stroke="#888" stroke-width="1" opacity="1"/><line transform="translate(968,0)" x2="0" y2="5" stroke="#888" stroke-width="1" opacity="1"/><line transform="translate(1092,0)" x2="0" y2="5" stroke="#888" stroke-width="1" opacity="1"/><line transform="translate(1217,0)" x2="0" y2="5" stroke="#888" stroke-width="1" opacity="1"/><line transform="translate(1341,0)" x2="0" y2="5" stroke="#888" stroke-width="1" opacity="1"/></g><g class="mark-text role-axis-label" pointer-events="none"><text text-anchor="middle" transform="translate(99.3103448275862,15)" font-family="Helvetica" font-size="10px" fill="#000" opacity="1">1970</text><text text-anchor="middle" transform="translate(223.44827586206898,15)" font-family="Helvetica" font-size="10px" fill="#000" opacity="1">1975</text><text text-anchor="middle" transform="translate(347.58620689655174,15)" font-family="Helvetica" font-size="10px" fill="#000" opacity="1">1980</text><text text-anchor="middle" transform="translate(471.7241379310345,15)" font-family="Helvetica" font-size="10px" fill="#000" opacity="1">1985</text><text text-anchor="middle" transform="translate(595.8620689655172,15)" font-family="Helvetica" font-size="10px" fill="#000" opacity="1">1990</text><text text-anchor="middle" transform="translate(720,15)" font-family="Helvetica" font-size="10px" fill="#000" opacity="1">1995</text><text text-anchor="middle" transform="translate(844.1379310344827,15)" font-family="Helvetica" font-size="10px" fill="#000" opacity="1">2000</text><text text-anchor="middle" transform="translate(968.2758620689656,15)" font-family="Helvetica" font-size="10px" fill="#000" opacity="1">2005</text><text text-anchor="middle" transform="translate(1092.4137931034481,15)" font-family="Helvetica" font-size="10px" fill="#000" opacity="1">2010</text><text text-anchor="middle" transform="translate(1216.5517241379312,15)" font-family="Helvetica" font-size="10px" fill="#000" opacity="1">2015</text><text text-anchor="middle" transform="translate(1340.6896551724137,15)" font-family="Helvetica" font-size="10px" fill="#000" opacity="1">2020</text></g><g class="mark-rule role-axis-domain" pointer-events="none"><line transform="translate(0,0)" x2="1440" y2="0" stroke="#888" stroke-width="1" opacity="1"/></g></g><path class="foreground" aria-hidden="true" d="" pointer-events="none" display="none"/></g></g><g class="mark-group role-axis" role="graphics-symbol" aria-roledescription="axis" aria-label="Y-axis for a discrete scale with 6 values: Theatre / show control, Standardization, Tracker / demoscene, Music sequencer / adaptive, Engine / middleware, Audio games / accessibility"><g transform="translate(0.5,0.5)"><path class="background" aria-hidden="true" d="M0,0h0v0h0Z" pointer-events="none"/><g><g class="mark-rule role-axis-tick" pointer-events="none"><line transform="translate(0,43)" x2="-5" y2="0" stroke="#888" stroke-width="1" opacity="1"/><line transform="translate(0,130)" x2="-5" y2="0" stroke="#888" stroke-width="1" opacity="1"/><line transform="translate(0,216)" x2="-5" y2="0" stroke="#888" stroke-width="1" opacity="1"/><line transform="translate(0,303)" x2="-5" y2="0" stroke="#888" stroke-width="1" opacity="1"/><line transform="translate(0,390)" x2="-5" y2="0" stroke="#888" stroke-width="1" opacity="1"/><line transform="translate(0,476)" x2="-5" y2="0" stroke="#888" stroke-width="1" opacity="1"/></g><g class="mark-text role-axis-label" pointer-events="none"><text text-anchor="end" transform="translate(-7,45.833333333333336)" font-family="Helvetica" font-size="10px" font-weight="bold" fill="#000" opacity="1">Theatre / show control</text><text text-anchor="end" transform="translate(-7,132.5)" font-family="Helvetica" font-size="10px" font-weight="bold" fill="#000" opacity="1">Standardization</text><text text-anchor="end" transform="translate(-7,219.16666666666669)" font-family="Helvetica" font-size="10px" font-weight="bold" fill="#000" opacity="1">Tracker / demoscene</text><text text-anchor="end" transform="translate(-7,305.8333333333333)" font-family="Helvetica" font-size="10px" font-weight="bold" fill="#000" opacity="1">Music sequencer / adaptive</text><text text-anchor="end" transform="translate(-7,392.5)" font-family="Helvetica" font-size="10px" font-weight="bold" fill="#000" opacity="1">Engine / middleware</text><text text-anchor="end" transform="translate(-7,479.1666666666667)" font-family="Helvetica" font-size="10px" font-weight="bold" fill="#000" opacity="1">Audio games / accessibility</text></g><g class="mark-rule role-axis-domain" pointer-events="none"><line transform="translate(0,0)" x2="0" y2="520" stroke="#888" stroke-width="1" opacity="1"/></g></g><path class="foreground" aria-hidden="true" d="" pointer-events="none" display="none"/></g></g><g class="mark-rule role-mark layer_0_marks" role="graphics-object" aria-roledescription="rule mark container"><line aria-label="lane: Theatre / show control" role="graphics-symbol" aria-roledescription="rule mark" transform="translate(0,43.333333333333336)" x2="1440" y2="0" stroke="#e7e7e7"/><line aria-label="lane: Standardization" role="graphics-symbol" aria-roledescription="rule mark" transform="translate(0,130)" x2="1440" y2="0" stroke="#e7e7e7"/><line aria-label="lane: Tracker / demoscene" role="graphics-symbol" aria-roledescription="rule mark" transform="translate(0,216.66666666666669)" x2="1440" y2="0" stroke="#e7e7e7"/><line aria-label="lane: Music sequencer / adaptive" role="graphics-symbol" aria-roledescription="rule mark" transform="translate(0,303.3333333333333)" x2="1440" y2="0" stroke="#e7e7e7"/><line aria-label="lane: Theatre / show control" role="graphics-symbol" aria-roledescription="rule mark" transform="translate(0,43.333333333333336)" x2="1440" y2="0" stroke="#e7e7e7"/><line aria-label="lane: Tracker / demoscene" role="graphics-symbol" aria-roledescription="rule mark" transform="translate(0,216.66666666666669)" x2="1440" y2="0" stroke="#e7e7e7"/><line aria-label="lane: Standardization" role="graphics-symbol" aria-roledescription="rule mark" transform="translate(0,130)" x2="1440" y2="0" stroke="#e7e7e7"/><line aria-label="lane: Engine / middleware" role="graphics-symbol" aria-roledescription="rule mark" transform="translate(0,390)" x2="1440" y2="0" stroke="#e7e7e7"/><line aria-label="lane: Music sequencer / adaptive" role="graphics-symbol" aria-roledescription="rule mark" transform="translate(0,303.3333333333333)" x2="1440" y2="0" stroke="#e7e7e7"/><line aria-label="lane: Music sequencer / adaptive" role="graphics-symbol" aria-roledescription="rule mark" transform="translate(0,303.3333333333333)" x2="1440" y2="0" stroke="#e7e7e7"/><line aria-label="lane: Standardization" role="graphics-symbol" aria-roledescription="rule mark" transform="translate(0,130)" x2="1440" y2="0" stroke="#e7e7e7"/><line aria-label="lane: Theatre / show control" role="graphics-symbol" aria-roledescription="rule mark" transform="translate(0,43.333333333333336)" x2="1440" y2="0" stroke="#e7e7e7"/><line aria-label="lane: Tracker / demoscene" role="graphics-symbol" aria-roledescription="rule mark" transform="translate(0,216.66666666666669)" x2="1440" y2="0" stroke="#e7e7e7"/><line aria-label="lane: Music sequencer / adaptive" role="graphics-symbol" aria-roledescription="rule mark" transform="translate(0,303.3333333333333)" x2="1440" y2="0" stroke="#e7e7e7"/><line aria-label="lane: Music sequencer / adaptive" role="graphics-symbol" aria-roledescription="rule mark" transform="translate(0,303.3333333333333)" x2="1440" y2="0" stroke="#e7e7e7"/><line aria-label="lane: Engine / middleware" role="graphics-symbol" aria-roledescription="rule mark" transform="translate(0,390)" x2="1440" y2="0" stroke="#e7e7e7"/><line aria-label="lane: Engine / middleware" role="graphics-symbol" aria-roledescription="rule mark" transform="translate(0,390)" x2="1440" y2="0" stroke="#e7e7e7"/><line aria-label="lane: Standardization" role="graphics-symbol" aria-roledescription="rule mark" transform="translate(0,130)" x2="1440" y2="0" stroke="#e7e7e7"/><line aria-label="lane: Engine / middleware" role="graphics-symbol" aria-roledescription="rule mark" transform="translate(0,390)" x2="1440" y2="0" stroke="#e7e7e7"/><line aria-label="lane: Theatre / show control" role="graphics-symbol" aria-roledescription="rule mark" transform="translate(0,43.333333333333336)" x2="1440" y2="0" stroke="#e7e7e7"/><line aria-label="lane: Audio games / accessibility" role="graphics-symbol" aria-roledescription="rule mark" transform="translate(0,476.6666666666667)" x2="1440" y2="0" stroke="#e7e7e7"/><line aria-label="lane: Audio games / accessibility" role="graphics-symbol" aria-roledescription="rule mark" transform="translate(0,476.6666666666667)" x2="1440" y2="0" stroke="#e7e7e7"/><line aria-label="lane: Engine / middleware" role="graphics-symbol" aria-roledescription="rule mark" transform="translate(0,390)" x2="1440" y2="0" stroke="#e7e7e7"/><line aria-label="lane: Music sequencer / adaptive" role="graphics-symbol" aria-roledescription="rule mark" transform="translate(0,303.3333333333333)" x2="1440" y2="0" stroke="#e7e7e7"/><line aria-label="lane: Engine / middleware" role="graphics-symbol" aria-roledescription="rule mark" transform="translate(0,390)" x2="1440" y2="0" stroke="#e7e7e7"/><line aria-label="lane: Theatre / show control" role="graphics-symbol" aria-roledescription="rule mark" transform="translate(0,43.333333333333336)" x2="1440" y2="0" stroke="#e7e7e7"/><line aria-label="lane: Engine / middleware" role="graphics-symbol" aria-roledescription="rule mark" transform="translate(0,390)" x2="1440" y2="0" stroke="#e7e7e7"/></g><g class="mark-symbol role-mark layer_1_marks" role="graphics-object" aria-roledescription="symbol mark container"><path aria-label="year: 1972; lane: Theatre / show control; title: Richmond Sound Design founded (C. Richmond)" role="graphics-symbol" aria-roledescription="point" transform="translate(148.9655172413793,43.333333333333336)" d="M5,0A5,5,0,1,1,-5,0A5,5,0,1,1,5,0" fill="#8a8f3a" stroke="white" stroke-width="1" opacity="0.7"/><path aria-label="year: 1983; lane: Standardization; title: MIDI 1.0 — the shared ancestor" role="graphics-symbol" aria-roledescription="point" transform="translate(422.06896551724134,130)" d="M5,0A5,5,0,1,1,-5,0A5,5,0,1,1,5,0" fill="#2f8f6b" stroke="white" stroke-width="1" opacity="0.7"/><path aria-label="year: 1987; lane: Tracker / demoscene; title: Ultimate Soundtracker: 'playlist editor'" role="graphics-symbol" aria-roledescription="point" transform="translate(521.3793103448276,216.66666666666669)" d="M5,0A5,5,0,1,1,-5,0A5,5,0,1,1,5,0" fill="#b0476a" stroke="white" stroke-width="1" opacity="0.7"/><path aria-label="year: 1988; lane: Music sequencer / adaptive; title: Blue Ribbon SoundWorks (Bars&amp;Pipes)" role="graphics-symbol" aria-roledescription="point" transform="translate(546.2068965517241,303.3333333333333)" d="M5,0A5,5,0,1,1,-5,0A5,5,0,1,1,5,0" fill="#c1733b" stroke="white" stroke-width="1" opacity="0.7"/><path aria-label="year: 1989; lane: Theatre / show control; title: 'MIDI Mania' panel (LDI); RSD MMA group" role="graphics-symbol" aria-roledescription="point" transform="translate(571.0344827586207,43.333333333333336)" d="M5,0A5,5,0,1,1,-5,0A5,5,0,1,1,5,0" fill="#8a8f3a" stroke="white" stroke-width="1" opacity="0.7"/><path aria-label="year: 1991; lane: Tracker / demoscene; title: ProTracker (Amiga)" role="graphics-symbol" aria-roledescription="point" transform="translate(620.6896551724137,216.66666666666669)" d="M5,0A5,5,0,1,1,-5,0A5,5,0,1,1,5,0" fill="#b0476a" stroke="white" stroke-width="1" opacity="0.7"/><path aria-label="year: 1991; lane: Standardization; title: MIDI Show Control v1.0" role="graphics-symbol" aria-roledescription="point" transform="translate(620.6896551724137,130)" d="M0,-4.33L-5,4.33L5,4.33Z" fill="#2f8f6b" stroke="white" stroke-width="1" opacity="0.7"/><path aria-label="year: 1991; lane: Engine / middleware; title: Miles AIL — first game-audio middleware" role="graphics-symbol" aria-roledescription="point" transform="translate(620.6896551724137,390)" d="M0,-4.33L-5,4.33L5,4.33Z" fill="#9b5fb0" stroke="white" stroke-width="1" opacity="0.7"/><path aria-label="year: 1991; lane: Music sequencer / adaptive; title: iMUSE in Monkey Island 2 (patent filed)" role="graphics-symbol" aria-roledescription="point" transform="translate(620.6896551724137,303.3333333333333)" d="M0,-4.33L-5,4.33L5,4.33Z" fill="#c1733b" stroke="white" stroke-width="1" opacity="0.7"/><path aria-label="year: 1994; lane: Music sequencer / adaptive; title: iMUSE patent granted US 5,315,057" role="graphics-symbol" aria-roledescription="point" transform="translate(695.1724137931035,303.3333333333333)" d="M5,0A5,5,0,1,1,-5,0A5,5,0,1,1,5,0" fill="#c1733b" stroke="white" stroke-width="1" opacity="0.7"/><path aria-label="year: 1994; lane: Standardization; title: IASIG formed (MIDI Association)" role="graphics-symbol" aria-roledescription="point" transform="translate(695.1724137931035,130)" d="M5,0A5,5,0,1,1,-5,0A5,5,0,1,1,5,0" fill="#2f8f6b" stroke="white" stroke-width="1" opacity="0.7"/><path aria-label="year: 1994; lane: Theatre / show control; title: Huntington, Control Systems for Live Ent." role="graphics-symbol" aria-roledescription="point" transform="translate(695.1724137931035,43.333333333333336)" d="M5,0A5,5,0,1,1,-5,0A5,5,0,1,1,5,0" fill="#8a8f3a" stroke="white" stroke-width="1" opacity="0.7"/><path aria-label="year: 1995; lane: Tracker / demoscene; title: FMOD debut (Firelight MODule player)" role="graphics-symbol" aria-roledescription="point" transform="translate(720,216.66666666666669)" d="M5,0A5,5,0,1,1,-5,0A5,5,0,1,1,5,0" fill="#b0476a" stroke="white" stroke-width="1" opacity="0.7"/><path aria-label="year: 1995; lane: Music sequencer / adaptive; title: MS buys Blue Ribbon SoundWorks" role="graphics-symbol" aria-roledescription="point" transform="translate(720,303.3333333333333)" d="M5,0A5,5,0,1,1,-5,0A5,5,0,1,1,5,0" fill="#c1733b" stroke="white" stroke-width="1" opacity="0.7"/><path aria-label="year: 1999; lane: Music sequencer / adaptive; title: Microsoft DirectMusic / DirectX Audio" role="graphics-symbol" aria-roledescription="point" transform="translate(819.3103448275863,303.3333333333333)" d="M5,0A5,5,0,1,1,-5,0A5,5,0,1,1,5,0" fill="#c1733b" stroke="white" stroke-width="1" opacity="0.7"/><path aria-label="year: 2000; lane: Engine / middleware; title: Audiokinetic founded, Montréal (Klein)" role="graphics-symbol" aria-roledescription="point" transform="translate(844.1379310344827,390)" d="M5,0A5,5,0,1,1,-5,0A5,5,0,1,1,5,0" fill="#9b5fb0" stroke="white" stroke-width="1" opacity="0.7"/><path aria-label="year: 2002; lane: Engine / middleware; title: Firelight Technologies incorporated" role="graphics-symbol" aria-roledescription="point" transform="translate(893.7931034482759,390)" d="M5,0A5,5,0,1,1,-5,0A5,5,0,1,1,5,0" fill="#9b5fb0" stroke="white" stroke-width="1" opacity="0.7"/><path aria-label="year: 2005; lane: Standardization; title: iXMF public-preview draft" role="graphics-symbol" aria-roledescription="point" transform="translate(968.2758620689656,130)" d="M5,0A5,5,0,1,1,-5,0A5,5,0,1,1,5,0" fill="#2f8f6b" stroke="white" stroke-width="1" opacity="0.7"/><path aria-label="year: 2006; lane: Engine / middleware; title: Wwise released; FMOD Designer" role="graphics-symbol" aria-roledescription="point" transform="translate(993.1034482758621,390)" d="M0,-4.33L-5,4.33L5,4.33Z" fill="#9b5fb0" stroke="white" stroke-width="1" opacity="0.7"/><path aria-label="year: 2006; lane: Theatre / show control; title: QLab v1.0 (Figure 53)" role="graphics-symbol" aria-roledescription="point" transform="translate(993.1034482758621,43.333333333333336)" d="M0,-4.33L-5,4.33L5,4.33Z" fill="#8a8f3a" stroke="white" stroke-width="1" opacity="0.7"/><path aria-label="year: 2010; lane: Audio games / accessibility; title: Papa Sangre (bespoke binaural engine)" role="graphics-symbol" aria-roledescription="point" transform="translate(1092.4137931034481,476.6666666666667)" d="M5,0A5,5,0,1,1,-5,0A5,5,0,1,1,5,0" fill="#3b6ea5" stroke="white" stroke-width="1" opacity="0.7"/><path aria-label="year: 2011; lane: Audio games / accessibility; title: The Nightjar" role="graphics-symbol" aria-roledescription="point" transform="translate(1117.2413793103449,476.6666666666667)" d="M5,0A5,5,0,1,1,-5,0A5,5,0,1,1,5,0" fill="#3b6ea5" stroke="white" stroke-width="1" opacity="0.7"/><path aria-label="year: 2012; lane: Engine / middleware; title: FMOD Studio announced (DAW-styled)" role="graphics-symbol" aria-roledescription="point" transform="translate(1142.0689655172414,390)" d="M5,0A5,5,0,1,1,-5,0A5,5,0,1,1,5,0" fill="#9b5fb0" stroke="white" stroke-width="1" opacity="0.7"/><path aria-label="year: 2013; lane: Music sequencer / adaptive; title: Collins, Playing with Sound" role="graphics-symbol" aria-roledescription="point" transform="translate(1166.896551724138,303.3333333333333)" d="M5,0A5,5,0,1,1,-5,0A5,5,0,1,1,5,0" fill="#c1733b" stroke="white" stroke-width="1" opacity="0.7"/><path aria-label="year: 2019; lane: Engine / middleware; title: Sony acquires Audiokinetic" role="graphics-symbol" aria-roledescription="point" transform="translate(1315.8620689655172,390)" d="M5,0A5,5,0,1,1,-5,0A5,5,0,1,1,5,0" fill="#9b5fb0" stroke="white" stroke-width="1" opacity="0.7"/><path aria-label="year: 2020; lane: Theatre / show control; title: Swift: FMOD adapted for theatre" role="graphics-symbol" aria-roledescription="point" transform="translate(1340.6896551724137,43.333333333333336)" d="M0,-4.33L-5,4.33L5,4.33Z" fill="#8a8f3a" stroke="white" stroke-width="1" opacity="0.7"/><path aria-label="year: 1996; lane: Engine / middleware; title: RAD Game Tools buys Miles (AIL)" role="graphics-symbol" aria-roledescription="point" transform="translate(744.8275862068966,390)" d="M5,0A5,5,0,1,1,-5,0A5,5,0,1,1,5,0" fill="#9b5fb0" stroke="white" stroke-width="1" opacity="0.7"/></g><g class="mark-text role-mark layer_2_marks" role="graphics-object" aria-roledescription="text mark container"><text aria-label="year: 1972; lane: Theatre / show control; short: Richmond Sound Design founded" role="graphics-symbol" aria-roledescription="text mark" text-anchor="middle" transform="translate(148.9655172413793,34.333333333333336)" font-family="Helvetica" font-size="8px" fill="#333">Richmond Sound Design founded</text><text aria-label="year: 1983; lane: Standardization; short: MIDI 1.0 (shared ancestor)" role="graphics-symbol" aria-roledescription="text mark" text-anchor="middle" transform="translate(422.06896551724134,121)" font-family="Helvetica" font-size="8px" fill="#333">MIDI 1.0 (shared ancestor)</text><text aria-label="year: 1987; lane: Tracker / demoscene; short: Ultimate Soundtracker" role="graphics-symbol" aria-roledescription="text mark" text-anchor="middle" transform="translate(521.3793103448276,207.66666666666669)" font-family="Helvetica" font-size="8px" fill="#333">Ultimate Soundtracker</text><text aria-label="year: 1988; lane: Music sequencer / adaptive; short: Blue Ribbon SoundWorks" role="graphics-symbol" aria-roledescription="text mark" text-anchor="middle" transform="translate(546.2068965517241,294.3333333333333)" font-family="Helvetica" font-size="8px" fill="#333">Blue Ribbon SoundWorks</text><text aria-label="year: 1991; lane: Engine / middleware; short: Miles AIL (first middleware)" role="graphics-symbol" aria-roledescription="text mark" text-anchor="middle" transform="translate(620.6896551724137,381)" font-family="Helvetica" font-size="8px" fill="#333">Miles AIL (first middleware)</text><text aria-label="year: 1994; lane: Music sequencer / adaptive; short: iMUSE patent (US 5,315,057)" role="graphics-symbol" aria-roledescription="text mark" text-anchor="middle" transform="translate(695.1724137931035,294.3333333333333)" font-family="Helvetica" font-size="8px" fill="#333">iMUSE patent (US 5,315,057)</text><text aria-label="year: 1994; lane: Standardization; short: IASIG formed" role="graphics-symbol" aria-roledescription="text mark" text-anchor="middle" transform="translate(695.1724137931035,121)" font-family="Helvetica" font-size="8px" fill="#333">IASIG formed</text><text aria-label="year: 1994; lane: Theatre / show control; short: Huntington: control systems" role="graphics-symbol" aria-roledescription="text mark" text-anchor="middle" transform="translate(695.1724137931035,34.333333333333336)" font-family="Helvetica" font-size="8px" fill="#333">Huntington: control systems</text><text aria-label="year: 1995; lane: Tracker / demoscene; short: FMOD debut" role="graphics-symbol" aria-roledescription="text mark" text-anchor="middle" transform="translate(720,207.66666666666669)" font-family="Helvetica" font-size="8px" fill="#333">FMOD debut</text><text aria-label="year: 1999; lane: Music sequencer / adaptive; short: MS DirectMusic" role="graphics-symbol" aria-roledescription="text mark" text-anchor="middle" transform="translate(819.3103448275863,294.3333333333333)" font-family="Helvetica" font-size="8px" fill="#333">MS DirectMusic</text><text aria-label="year: 2000; lane: Engine / middleware; short: Audiokinetic founded" role="graphics-symbol" aria-roledescription="text mark" text-anchor="middle" transform="translate(844.1379310344827,381)" font-family="Helvetica" font-size="8px" fill="#333">Audiokinetic founded</text><text aria-label="year: 2006; lane: Engine / middleware; short: Wwise released" role="graphics-symbol" aria-roledescription="text mark" text-anchor="middle" transform="translate(993.1034482758621,381)" font-family="Helvetica" font-size="8px" fill="#333">Wwise released</text><text aria-label="year: 2010; lane: Audio games / accessibility; short: Papa Sangre" role="graphics-symbol" aria-roledescription="text mark" text-anchor="middle" transform="translate(1092.4137931034481,467.6666666666667)" font-family="Helvetica" font-size="8px" fill="#333">Papa Sangre</text><text aria-label="year: 2019; lane: Engine / middleware; short: Sony acquires Audiokinetic" role="graphics-symbol" aria-roledescription="text mark" text-anchor="middle" transform="translate(1315.8620689655172,381)" font-family="Helvetica" font-size="8px" fill="#333">Sony acquires Audiokinetic</text><text aria-label="year: 2020; lane: Theatre / show control; short: Swift: FMOD → theatre" role="graphics-symbol" aria-roledescription="text mark" text-anchor="middle" transform="translate(1340.6896551724137,34.333333333333336)" font-family="Helvetica" font-size="8px" fill="#333">Swift: FMOD → theatre</text></g><g class="mark-text role-mark layer_3_marks" role="graphics-object" aria-roledescription="text mark container"><text aria-label="year: 1989; lane: Theatre / show control; short: ‘MIDI Mania’ panel" role="graphics-symbol" aria-roledescription="text mark" text-anchor="middle" transform="translate(571.0344827586207,56.333333333333336)" font-family="Helvetica" font-size="8px" fill="#333">‘MIDI Mania’ panel</text><text aria-label="year: 1991; lane: Tracker / demoscene; short: ProTracker" role="graphics-symbol" aria-roledescription="text mark" text-anchor="middle" transform="translate(620.6896551724137,229.66666666666669)" font-family="Helvetica" font-size="8px" fill="#333">ProTracker</text><text aria-label="year: 1991; lane: Standardization; short: MIDI Show Control 1.0" role="graphics-symbol" aria-roledescription="text mark" text-anchor="middle" transform="translate(620.6896551724137,143)" font-family="Helvetica" font-size="8px" fill="#333">MIDI Show Control 1.0</text><text aria-label="year: 1991; lane: Music sequencer / adaptive; short: iMUSE (Monkey Island 2)" role="graphics-symbol" aria-roledescription="text mark" text-anchor="middle" transform="translate(620.6896551724137,316.3333333333333)" font-family="Helvetica" font-size="8px" fill="#333">iMUSE (Monkey Island 2)</text><text aria-label="year: 1995; lane: Music sequencer / adaptive; short: MS buys Blue Ribbon" role="graphics-symbol" aria-roledescription="text mark" text-anchor="middle" transform="translate(720,316.3333333333333)" font-family="Helvetica" font-size="8px" fill="#333">MS buys Blue Ribbon</text><text aria-label="year: 2002; lane: Engine / middleware; short: Firelight Technologies" role="graphics-symbol" aria-roledescription="text mark" text-anchor="middle" transform="translate(893.7931034482759,403)" font-family="Helvetica" font-size="8px" fill="#333">Firelight Technologies</text><text aria-label="year: 2005; lane: Standardization; short: iXMF draft" role="graphics-symbol" aria-roledescription="text mark" text-anchor="middle" transform="translate(968.2758620689656,143)" font-family="Helvetica" font-size="8px" fill="#333">iXMF draft</text><text aria-label="year: 2006; lane: Theatre / show control; short: QLab v1.0" role="graphics-symbol" aria-roledescription="text mark" text-anchor="middle" transform="translate(993.1034482758621,56.333333333333336)" font-family="Helvetica" font-size="8px" fill="#333">QLab v1.0</text><text aria-label="year: 2011; lane: Audio games / accessibility; short: The Nightjar" role="graphics-symbol" aria-roledescription="text mark" text-anchor="middle" transform="translate(1117.2413793103449,489.6666666666667)" font-family="Helvetica" font-size="8px" fill="#333">The Nightjar</text><text aria-label="year: 2012; lane: Engine / middleware; short: FMOD Studio" role="graphics-symbol" aria-roledescription="text mark" text-anchor="middle" transform="translate(1142.0689655172414,403)" font-family="Helvetica" font-size="8px" fill="#333">FMOD Studio</text><text aria-label="year: 2013; lane: Music sequencer / adaptive; short: Collins, Playing with Sound" role="graphics-symbol" aria-roledescription="text mark" text-anchor="middle" transform="translate(1166.896551724138,316.3333333333333)" font-family="Helvetica" font-size="8px" fill="#333">Collins, Playing with Sound</text><text aria-label="year: 1996; lane: Engine / middleware; short: RAD buys Miles" role="graphics-symbol" aria-roledescription="text mark" text-anchor="middle" transform="translate(744.8275862068966,403)" font-family="Helvetica" font-size="8px" fill="#333">RAD buys Miles</text></g><g class="mark-group role-title"><g transform="translate(-137.60546875,-20)"><path class="background" aria-hidden="true" d="M0,0h0v0h0Z" pointer-events="none"/><g><g class="mark-text role-title-text" role="graphics-symbol" aria-roledescription="title" aria-label="Title text 'A timeline of audio control, 1972–2020'" pointer-events="none"><text text-anchor="start" transform="translate(0,13)" font-family="Helvetica" font-size="16px" font-weight="bold" fill="#0b5872" opacity="1">A timeline of audio control, 1972–2020</text></g></g><path class="foreground" aria-hidden="true" d="" pointer-events="none" display="none"/></g></g></g><path class="foreground" aria-hidden="true" d="" display="none"/></g></g></g></svg>